<svg xmlns="http://www.w3.org/2000/svg" viewBox="0 0 118.96 158.4"><defs><style>.cls-1{fill:#f05038;}.cls-2{fill:none;}</style></defs><g id="Layer_2" data-name="Layer 2"><g id="Authereum"><path class="cls-1" d="M24.92,17c-9.34,3-18.75,6-21,6.67L0,24.92V52.39c0,16.45.12,28.85.31,30.9,1.37,14.4,7.6,28,18,39.38,2.36,2.58,39.93,35.32,41,35.73.44.16,33.46-28,38.88-33.18a69.49,69.49,0,0,0,19.37-34.54c1.38-6.61,1.47-9.07,1.38-38.35l-.1-27.54L97.69,18.13c-11.62-3.65-21.18-6.61-21.25-6.58s1.72,3.52,3.93,7.73l4,7.63,6,1.93c3.3,1.06,8.29,2.65,11.09,3.52L106.57,34l-.13,25.3c-.09,24.29-.12,25.41-.74,28.25a55.36,55.36,0,0,1-14.77,27.41c-1.43,1.47-8.72,7.91-16.17,14.3s-13.92,12-14.39,12.43l-.81.75-14.3-12.31C27.79,115,25.17,112.45,21,106a54,54,0,0,1-7-15.79c-1.4-5.61-1.53-7.69-1.53-32.68V34l4.46-1.4,11-3.52a67.46,67.46,0,0,0,6.61-2.31c0-.09,1.74-3.52,3.89-7.6s3.9-7.5,3.9-7.57S42,11.52,24.92,17Z"/><path class="cls-1" d="M58.69,12.49c-.28.56-8.13,15.54-17.41,33.27L24.39,78l.25,2.61a38.31,38.31,0,0,0,5.79,16.17c1.16,1.87,1.5,2.21,1.81,1.87S38.6,86.78,46,72.76,59.34,47.31,59.47,47.31s6.26,11.34,13.67,25.17,13.62,25.39,13.8,25.7c.31.53.38.5.88-.15,3.2-4.21,5.85-11.15,6.6-17.29l.37-3.12-17.69-33C67.38,26.51,59.37,11.58,59.31,11.55S59,11.9,58.69,12.49Z"/><path class="cls-1" d="M50.78,91.83l-8.57,17.1L47,113.14c2.65,2.3,6.54,5.64,8.63,7.38l3.83,3.18.84-.69c.5-.37,4.33-3.71,8.54-7.41l7.69-6.73L68,91.8c-4.7-9.38-8.56-17.07-8.62-17.07S55.48,82.42,50.78,91.83Z"/><g id="Layer_14" data-name="Layer 14"><ellipse class="cls-2" cx="61.23" cy="4.24" rx="5.51" ry="4.24"/></g></g></g></svg>