<svg xmlns="http://www.w3.org/2000/svg" viewBox="0 0 196.17 66.66"><defs><style>.cls-1{fill:#46b6e4;}.cls-2{fill:#010101;}</style></defs><g id="Layer_2" data-name="Layer 2"><g id="Grid"><g id="Layer_13" data-name="Layer 13"><polygon class="cls-1" points="196.17 11.9 184.08 11.9 184.08 0 183.87 0 174.89 0 173.97 0 173.97 11.9 161.87 11.9 161.87 21.43 173.97 21.43 173.97 33.33 184.08 33.33 184.08 21.43 196.17 21.43 196.17 11.9"/><path class="cls-2" d="M38.91,55.23a22.67,22.67,0,0,1-9.84,2C19,57.27,10.83,50,10.83,39.41s7.79-17.57,18.32-17.57a23.43,23.43,0,0,1,13.17,3.64l4.62-8.33c-2-1.29-7.57-5.07-18.25-5.07C11.9,12.08,0,24,0,39.41S11.88,66.66,28.47,66.66c11.12,0,17.41-4,20.28-6.21v-21H38.91Z"/><path class="cls-2" d="M101.18,31.66c0-12.22-8.88-19.78-22.2-19.78H59.42V66.66H70.17V51H79.6L90.27,66.66H103L90.42,48.59A17.9,17.9,0,0,0,101.18,31.66ZM78,41.56H70.17V21.32h8C85.21,21.32,90,25.14,90,31.68c0,6-4.75,9.9-12,9.9Z"/><rect class="cls-2" x="112.36" y="11.89" width="10.75" height="54.77"/><path class="cls-2" d="M184,39.73h0V38.09H174v1.64s-.1,4-.28,5.31c-1,7.65-8.3,12.12-17.59,12.12h-9.89V21.4h10V11.88h-20.7V66.66h21.11c15.17,0,26.23-8.29,27.43-21.62C184.14,43.72,184,39.73,184,39.73Z"/></g></g></g></svg>