<svg xmlns="http://www.w3.org/2000/svg" viewBox="0 0 124.51 124.47"><defs><style>.cls-1{fill:#f15722;stroke:#f15a29;stroke-miterlimit:10;}</style></defs><g id="Layer_2" data-name="Layer 2"><g id="Ledger"><path class="cls-1" d="M47.5.5h57.91c.65.1,1.3.06,2,.13a16.77,16.77,0,0,1,6.7,2.3,19.69,19.69,0,0,1,9.71,13.51,15.15,15.15,0,0,1,.23,3.15q0,28.4,0,56.81c0,.66-.07.73-.74.76-.24,0-.47,0-.71,0H48.2c-.73,0-.88-.19-.91-.92V1.71C47.29,1.3,47.19.86,47.5.5Z"/><path class="cls-1" d="M.5,47.5l1.74,0h27.1c.44,0,.58.08.58.55q0,14.17,0,28.35c0,.48-.15.55-.58.55H.5Z"/><path class="cls-1" d="M.5,94.51c.22,0,.43,0,.65,0q14.07,0,28.13,0c.48,0,.64.1.64.62q0,14.11,0,28.24c0,.45-.09.58-.56.57-3.05,0-6.1,0-9.16,0A19.72,19.72,0,0,1,.6,106.36c0-.1,0-.23-.1-.29Z"/><path class="cls-1" d="M29.84.5a1,1,0,0,1,.07.58q0,14.15,0,28.29c0,.48-.12.59-.59.59Q14.92,29.93.5,30V18.49c.1-.55.05-1.11.14-1.66a18.81,18.81,0,0,1,4.06-9A20,20,0,0,1,14,1.34,13.69,13.69,0,0,1,18.46.55c.15,0,.32.06.47-.05Z"/><path class="cls-1" d="M76.93,94.63c0,.18,0,.36,0,.54q0,14.08,0,28.19c0,.5-.13.61-.62.61q-14.13,0-28.24,0c-.51,0-.61-.13-.61-.62q0-14.09,0-28.18c0-.19,0-.37,0-.55a1,1,0,0,1,.58-.05H76.34A1,1,0,0,1,76.93,94.63Z"/><path class="cls-1" d="M109.23,94.54c4.71,0,9.41,0,14.12,0,.47,0,.61.1.61.59,0,3.35.07,6.69-.06,10a19.73,19.73,0,0,1-16.43,18.56,18.63,18.63,0,0,1-3,.25c-3.16,0-6.33,0-9.49,0-.41,0-.5-.1-.5-.5q0-14.2,0-28.41c0-.47.16-.52.55-.51Z"/><path class="cls-1" d="M76.93,94.63l-.55,0H48l-.48,0c.12-.21.32-.1.48-.1H76.44C76.6,94.52,76.8,94.42,76.93,94.63Z"/></g></g></svg>