<svg xmlns="http://www.w3.org/2000/svg" viewBox="0 0 98.56 147.59"><defs><style>.cls-1{fill:#4b6c9c;}.cls-2{fill:#6eb4dc;}.cls-3{fill:#3e5679;}.cls-4{fill:#1c435b;}.cls-5{fill:#133544;}.cls-6{fill:#509cba;}.cls-7{fill:#8a939e;}.cls-8{fill:#9299a4;}</style></defs><g id="Layer_2" data-name="Layer 2"><g id="Portis"><path class="cls-1" d="M96.5,84.2c.76,0,.91.45,1,1.09q5.08,27.84-14.78,48a25.06,25.06,0,0,1-5,4.28c-10.47,4.95-18.56,1-23.59-8a46.62,46.62,0,0,1-5.36-16.08,3.25,3.25,0,0,1,.24-1.34c1.17-1.48,2.89-2.24,4.45-3.12C64,103.1,74.17,96.64,84.65,90.71,88.57,88.49,92.11,85.56,96.5,84.2Z"/><path class="cls-2" d="M49.38,112.18v1.06c-.17,8.16-3.56,15.1-8.54,21.27-3.88,4.82-11,6.28-17.26,4-1.19-.43-2.29-1-3.45-1.51-9.62-7.42-15.33-17.4-18.6-28.88a21.62,21.62,0,0,1-.86-7.66,31.79,31.79,0,0,1,0-8.66,26.75,26.75,0,0,1,.62-6.55c.14-.64.31-1.09,1-1.08a5.12,5.12,0,0,1,2.67,1c12.08,7.06,24.07,14.28,36.1,21.42,2.08,1.24,4.21,2.38,6.28,3.62C48.19,110.75,49.2,111,49.38,112.18Z"/><path class="cls-2" d="M4,74.89c0-2.26,1.68-3.72,2.7-5.38,7.37-11.94,14.6-24,21.8-36C34.71,23.13,41.08,12.84,47.26,2.43c.56-.94.8-2.75,2.7-2.38a51.58,51.58,0,0,1,.39,8.61V48.52a23.61,23.61,0,0,1-.21,4.6c-.67,2.29-2.84,2.79-4.61,3.6C39.73,59.34,34,62,28.13,64.59c-6.35,2.81-12.57,5.92-18.95,8.65C7.51,74,5.92,75,4,74.89Z"/><path class="cls-1" d="M49.41,54.05q0-25.33.05-50.68c0-1.11-.4-2.33.5-3.32Q59.43,15.73,68.89,31.4,76,43.12,83,54.85q5.87,9.74,11.7,19.48c-1.31,1-2.44,0-3.5-.47-8.57-3.75-17-7.72-25.55-11.62-5.18-2.36-10.48-4.44-15.51-7.12A1.59,1.59,0,0,1,49.41,54.05Z"/><path class="cls-3" d="M49.41,54.05l.65.5a11,11,0,0,1,.3,2.86c0,13.07,0,26.15,0,39.23a9.24,9.24,0,0,1-.49,4c-1.65,1.72-3.08.21-4.35-.5-6.55-3.67-13-7.59-19.4-11.42-4.79-2.84-9.62-5.6-14.33-8.57C9.62,77.72,6.51,76.75,4,74.89c4.32-2,8.62-4.15,13-6.14C27.76,63.82,38.59,59,49.41,54.05Z"/><path class="cls-4" d="M48.84,101.09c1-1,.57-2.18.57-3.29,0-13.32,0-26.65,0-40,0-1.11-.42-2.35.61-3.28,6.73,3,13.42,6.11,20.2,9,8.2,3.5,16,7.84,24.46,10.77C93.29,76.69,90.4,77,88.5,78.64c-.53.47-1.49.5-1.4,1.53-11.71,7-23.54,13.88-35.28,20.88C50.93,101.57,49.85,102.85,48.84,101.09Z"/><path class="cls-5" d="M48.84,101.09c.48.63,1,.36,1.52.06,10.18-6,20.38-11.94,30.51-18,2-1.2,3.73-2.88,6.23-3a54.53,54.53,0,0,1,9.4,4C90.89,88.3,84.67,91.39,78.75,95,69.89,100.4,60.92,105.63,52,110.92c-.83.49-1.73.84-2.6,1.26C38.86,106,28.31,99.86,17.83,93.6c-5.19-3.09-10.61-5.81-15.5-9.4a67.39,67.39,0,0,1,9.44-4.08c4,.68,6.93,3.56,10.31,5.46C31.06,90.64,39.93,95.91,48.84,101.09Z"/><path class="cls-6" d="M20.13,137c3.4.49,6.59,2,10.14,1.75a14.78,14.78,0,0,0,10.94-5.94c4.61-5.77,6.5-12.63,8.17-19.6,1.1,5.05,2.35,10.06,4.79,14.67,5.09,9.62,11.28,13.08,22.45,9.79a7.1,7.1,0,0,1,1.14-.14c-6.8,5.31-14.29,8.92-23.06,9.36a49,49,0,0,1-10.55,0C34.93,146.57,27.31,142.33,20.13,137Z"/><path class="cls-7" d="M44.15,146.92H54.7A21.06,21.06,0,0,1,44.15,146.92Z"/><path class="cls-8" d="M.67,91.83v8.66A14.38,14.38,0,0,1,.67,91.83Z"/></g></g></svg>