<svg xmlns="http://www.w3.org/2000/svg" viewBox="0 0 102.09 123.89"><defs><style>.cls-1,.cls-2{fill:#406ab3;}.cls-1{fill-rule:evenodd;}.cls-3{fill:none;}</style></defs><g id="Layer_2" data-name="Layer 2"><g id="Torus"><g id="Layer_12" data-name="Layer 12"><path class="cls-1" d="M10.32,13.64A10.32,10.32,0,0,0,0,24V36A10.33,10.33,0,0,0,10.32,46.31H28.58v67.26a10.33,10.33,0,0,0,10.33,10.32h12a10.32,10.32,0,0,0,10.32-10.32V24A10.32,10.32,0,0,0,50.93,13.64H10.32Z"/><path class="cls-2" d="M85.75,46.31A16.34,16.34,0,1,0,69.42,30,16.35,16.35,0,0,0,85.75,46.31Z"/></g><ellipse class="cls-3" cx="44.51" cy="4.24" rx="5.51" ry="4.24"/></g></g></svg>