<svg xmlns="http://www.w3.org/2000/svg" viewBox="0 0 93.53 135.36"><g id="Layer_2" data-name="Layer 2"><g id="Trezor"><path d="M.19,41.73H13.61V32.65C13.64,16.46,24.8,3.36,41,.51c15.67-2.77,31.41,6,36.94,20.61,1.85,4.87,2,9.93,1.94,15,0,1.78,0,3.57,0,5.58H93.48v2.63c0,22.47,0,44.94,0,67.41a3.1,3.1,0,0,1-2.16,3.32C77.05,121.7,62.79,128.44,48.46,135a4.71,4.71,0,0,1-3.5,0c-14.4-6.63-28.74-13.37-43.1-20.07-1-.49-1.86-.87-1.86-2.36Q.09,77.73.05,42.91C.05,42.62.12,42.34.19,41.73ZM18.88,58.9c0,14.1,0,27.94.07,41.79a2.9,2.9,0,0,0,1.52,2q12.35,5.88,24.79,11.53a4.12,4.12,0,0,0,3.05,0c8.16-3.71,16.25-7.57,24.41-11.29a2.77,2.77,0,0,0,1.94-3c-.07-13,0-25.9,0-38.85,0-.72-.07-1.44-.11-2.19ZM62.69,41.64c0-3.83.29-7.58-.06-11.27-.7-7.39-6.72-12.58-14.91-13.26C40.4,16.51,32.79,21.23,31.35,28c-.93,4.37-.64,9-.9,13.6Z"/></g></g></svg>