<svg xmlns="http://www.w3.org/2000/svg" viewBox="0 0 133.54 133.54"><defs><style>.cls-1{fill:#4262ae;}.cls-2{fill:#fff;}.cls-3{fill:#4163ae;}</style></defs><g id="Layer_2" data-name="Layer 2"><g id="WalletLink"><path class="cls-1" d="M66.77,133.54a66.77,66.77,0,1,1,66.77-66.66A66.77,66.77,0,0,1,66.77,133.54Zm-.2-45.26H83.13c3.46,0,5.16-1.71,5.16-5.17q0-16.32,0-32.64c0-3.6-1.78-5.24-5.35-5.23q-16.2.06-32.39,0c-3.58,0-5.29,1.71-5.28,5.3q0,16.2,0,32.39c0,3.73,1.8,5.39,5.49,5.35C56,88.24,61.3,88.28,66.57,88.28Z"/><path class="cls-2" d="M66.77,107.49a40.72,40.72,0,1,1,40.72-40.65A40.71,40.71,0,0,1,66.77,107.49Zm-.12-27.6h10.1c2.11,0,3.15-1,3.14-3.15q0-10,0-19.9c0-2.2-1.09-3.2-3.26-3.19q-9.88,0-19.76,0c-2.18,0-3.22,1-3.22,3.23q0,9.88,0,19.76c0,2.27,1.1,3.29,3.35,3.26C60.21,79.86,63.43,79.89,66.65,79.89Z"/><path class="cls-3" d="M66.65,79.89c-3.22,0-6.44,0-9.65,0-2.25,0-3.36-1-3.35-3.26q0-9.89,0-19.76c0-2.19,1-3.23,3.22-3.23q9.88,0,19.76,0c2.17,0,3.26,1,3.26,3.19q0,9.94,0,19.9c0,2.11-1,3.15-3.14,3.15Z"/></g></g></svg>