<svg xmlns="http://www.w3.org/2000/svg" viewBox="0 0 171.63 105.2"><defs><style>.cls-1{fill:#5991cd;}</style></defs><g id="Layer_2" data-name="Layer 2"><g id="WalletConnect"><g id="Page-1"><g id="walletconnect-logo-alt"><path id="WalletConnect-2" data-name="WalletConnect" class="cls-1" d="M35.14,20.55a72.77,72.77,0,0,1,101.36,0l3.37,3.3a3.45,3.45,0,0,1,0,5L128.34,40.1a1.82,1.82,0,0,1-2.53,0l-4.64-4.54a50.75,50.75,0,0,0-70.71,0l-5,4.86a1.84,1.84,0,0,1-2.54,0L31.44,29.14a3.47,3.47,0,0,1,0-5ZM160.33,43.89l10.26,10a3.47,3.47,0,0,1,0,5l-46.25,45.28a3.64,3.64,0,0,1-5.07,0h0L86.45,72a.92.92,0,0,0-1.27,0h0L52.36,104.17a3.63,3.63,0,0,1-5.06,0h0L1.05,58.89a3.45,3.45,0,0,1,0-5l10.26-10a3.63,3.63,0,0,1,5.06,0L49.2,76a.91.91,0,0,0,1.26,0h0L83.28,43.89a3.64,3.64,0,0,1,5.07,0h0L121.17,76a.92.92,0,0,0,1.27,0l32.82-32.13A3.64,3.64,0,0,1,160.33,43.89Z"/></g></g></g></g></svg>